<svg width="174.72164916992188px" height="114.90908508300781px" xmlns="http://www.w3.org/2000/svg" viewBox="162.63917541503906 17.545457458496095 174.72164916992188 114.90908508300781" style="background: rgba(0, 0, 0, 0);" preserveAspectRatio="xMidYMid"><defs><filter id="editing-hole" x="-100%" y="-100%" width="300%" height="300%"><feFlood flood-color="#0f1417" result="black"></feFlood><feMorphology operator="dilate" radius="2" in="SourceGraphic" result="erode"></feMorphology><feGaussianBlur in="erode" stdDeviation="4" result="blur"></feGaussianBlur><feOffset in="blur" dx="2" dy="2" result="offset"></feOffset><feComposite operator="atop" in="offset" in2="black" result="merge"></feComposite><feComposite operator="in" in="merge" in2="SourceGraphic" result="inner-shadow"></feComposite></filter></defs><g filter="url(#editing-hole)"><g transform="translate(194.05998921394348, 97.71999931335449)"><path d="M21.25 0.77L21.25 0.77Q13.25 0.77 8.19-2.43L8.19-2.43L8.19-2.43Q3.14-5.63 3.14-12.42L3.14-12.42L3.20-13.70L9.22-13.70L9.22-13.70Q9.22-13.63 9.15-13.25L9.15-13.25L9.15-13.25Q9.09-12.86 9.09-12.35L9.09-12.35L9.09-12.35Q9.09-8.45 12.32-6.43L12.32-6.43L12.32-6.43Q15.55-4.42 20.93-4.42L20.93-4.42L20.93-4.42Q26.94-4.42 30.14-6.30L30.14-6.30L30.14-6.30Q33.34-8.19 33.34-11.71L33.34-11.71L33.34-11.71Q33.34-14.08 31.68-15.65L31.68-15.65L31.68-15.65Q30.02-17.22 27.49-18.11L27.49-18.11L27.49-18.11Q24.96-19.01 20.67-20.10L20.67-20.10L20.67-20.10Q15.36-21.44 12.10-22.69L12.10-22.69L12.10-22.69Q8.83-23.94 6.53-26.40L6.53-26.40L6.53-26.40Q4.22-28.86 4.22-32.90L4.22-32.90L4.22-32.90Q4.22-38.66 9.02-41.66L9.02-41.66L9.02-41.66Q13.82-44.67 21.31-44.67L21.31-44.67L21.31-44.67Q28.80-44.67 33.47-41.63L33.47-41.63L33.47-41.63Q38.14-38.59 38.14-32.32L38.14-32.32L38.14-31.55L32.19-31.55L32.19-32.51L32.19-32.51Q32.19-35.78 29.22-37.63L29.22-37.63L29.22-37.63Q26.24-39.49 21.50-39.49L21.50-39.49L21.50-39.49Q16.45-39.49 13.41-37.95L13.41-37.95L13.41-37.95Q10.37-36.42 10.37-33.34L10.37-33.34L10.37-33.34Q10.37-31.10 12-29.70L12-29.70L12-29.70Q13.63-28.29 16.03-27.42L16.03-27.42L16.03-27.42Q18.43-26.56 22.72-25.47L22.72-25.47L22.72-25.47Q28.03-24.13 31.39-22.85L31.39-22.85L31.39-22.85Q34.75-21.57 37.09-19.10L37.09-19.10L37.09-19.10Q39.42-16.64 39.42-12.67L39.42-12.67L39.42-12.67Q39.42-5.63 34.53-2.43L34.53-2.43L34.53-2.43Q29.63 0.77 21.25 0.77L21.25 0.77ZM65.54 0L65.54-43.90L74.56-43.90L85.06-13.95L85.06-13.95Q85.63-12.29 86.24-10.14L86.24-10.14L86.24-10.14Q86.85-8 87.04-7.36L87.04-7.36L87.30-7.36L87.30-7.36Q87.49-8.06 88.10-10.30L88.10-10.30L88.10-10.30Q88.70-12.54 89.22-13.95L89.22-13.95L99.78-43.90L108.74-43.90L108.74 0L102.66 0L102.66-28.99L102.78-37.18L102.34-37.18L102.34-37.18Q102.27-36.74 101.95-35.36L101.95-35.36L101.95-35.36Q101.63-33.98 101.25-32.96L101.25-32.96L89.34 0L84.29 0L72.58-32.96L72.58-32.96Q72.26-33.86 71.90-35.30L71.90-35.30L71.90-35.30Q71.55-36.74 71.49-37.18L71.49-37.18L71.10-37.18L71.23-28.99L71.23 0L65.54 0Z" fill="#0f1417"></path></g></g><style>text {
  font-size: 64px;
  font-family: Arial Black;
  dominant-baseline: central;
  text-anchor: middle;
}</style></svg>